<svg width="22" height="22" viewBox="0 0 22 22" fill="none" xmlns="http://www.w3.org/2000/svg">
<path d="M9.00002 12C9.42947 12.5741 9.97737 13.0491 10.6066 13.3929C11.2358 13.7367 11.9315 13.9411 12.6467 13.9923C13.3618 14.0435 14.0796 13.9403 14.7514 13.6897C15.4231 13.4392 16.0331 13.047 16.54 12.54L19.54 9.53997C20.4508 8.59695 20.9548 7.33394 20.9434 6.02296C20.932 4.71198 20.4062 3.45791 19.4791 2.53087C18.5521 1.60383 17.298 1.07799 15.987 1.0666C14.676 1.0552 13.413 1.55918 12.47 2.46997L10.75 4.17997M13 9.99996C12.5706 9.42584 12.0227 8.95078 11.3935 8.60703C10.7643 8.26327 10.0685 8.05885 9.35337 8.00763C8.63822 7.95641 7.92043 8.0596 7.24867 8.31018C6.57691 8.56077 5.9669 8.9529 5.46002 9.45996L2.46002 12.46C1.54923 13.403 1.04525 14.666 1.05665 15.977C1.06804 17.288 1.59388 18.542 2.52092 19.4691C3.44796 20.3961 4.70203 20.9219 6.01301 20.9333C7.32399 20.9447 8.58701 20.4408 9.53002 19.53L11.24 17.82" stroke="#6E7375" stroke-width="1.5" stroke-linecap="round" stroke-linejoin="round"/>
</svg>
